<svg width="596" height="351" viewBox="0 0 596 351" fill="none" xmlns="http://www.w3.org/2000/svg">
<path d="M550.593 4.31776H341.103V0H246.112V4.31776H35.7592C33.8983 4.31776 32.0557 4.68429 30.3364 5.39642C28.6172 6.10854 27.0551 7.15233 25.7392 8.46817C24.4234 9.78401 23.3796 11.3461 22.6675 13.0654C21.9553 14.7846 21.5888 16.6273 21.5888 18.4882V305.344C21.5888 309.102 23.0817 312.707 25.7392 315.364C28.3967 318.021 32.001 319.514 35.7592 319.514H550.593C554.351 319.514 557.956 318.021 560.613 315.364C563.27 312.707 564.763 309.102 564.763 305.344V18.4882C564.763 16.6273 564.397 14.7846 563.685 13.0654C562.973 11.3461 561.929 9.78401 560.613 8.46817C559.297 7.15233 557.735 6.10854 556.016 5.39642C554.297 4.68429 552.454 4.31776 550.593 4.31776V4.31776Z" fill="#3F3D56"/>
<path d="M544.761 29.3568H41.5913C41.039 29.3568 40.5913 29.8045 40.5913 30.3568V313.337C40.5913 313.889 41.039 314.337 41.5913 314.337H544.761C545.314 314.337 545.761 313.889 545.761 313.337V30.3568C545.761 29.8045 545.314 29.3568 544.761 29.3568Z" fill="#D0CDE1"/>
<path d="M292.744 21.5888C295.606 21.5888 297.926 19.269 297.926 16.4075C297.926 13.5459 295.606 11.2262 292.744 11.2262C289.883 11.2262 287.563 13.5459 287.563 16.4075C287.563 19.269 289.883 21.5888 292.744 21.5888Z" fill="#25FF25"/>
<path d="M190.851 135.707H178.851C178.056 135.706 177.293 135.39 176.731 134.827C176.169 134.265 175.852 133.502 175.851 132.707V120.707C175.852 119.911 176.169 119.149 176.731 118.586C177.293 118.024 178.056 117.708 178.851 117.707H190.851C191.647 117.708 192.409 118.024 192.972 118.586C193.534 119.149 193.85 119.911 193.851 120.707V132.707C193.85 133.502 193.534 134.265 192.972 134.827C192.409 135.39 191.647 135.706 190.851 135.707ZM178.851 119.707C178.586 119.707 178.332 119.813 178.145 120C177.957 120.188 177.852 120.442 177.851 120.707V132.707C177.852 132.972 177.957 133.226 178.145 133.414C178.332 133.601 178.586 133.706 178.851 133.707H190.851C191.116 133.706 191.371 133.601 191.558 133.414C191.746 133.226 191.851 132.972 191.851 132.707V120.707C191.851 120.442 191.746 120.188 191.558 120C191.371 119.813 191.116 119.707 190.851 119.707H178.851Z" fill="#3F3D56"/>
<path d="M404.851 133.707H176.851V135.707H404.851V133.707Z" fill="#3F3D56"/>
<path d="M398.851 188.707H345.851V204.707H398.851V188.707Z" fill="#25FF25"/>
<path d="M402.851 200.707H353.851C353.056 200.706 352.293 200.39 351.731 199.827C351.169 199.265 350.852 198.502 350.851 197.707V185.707C350.852 184.911 351.169 184.149 351.731 183.586C352.293 183.024 353.056 182.708 353.851 182.707H402.851C403.647 182.708 404.409 183.024 404.972 183.586C405.534 184.149 405.85 184.911 405.851 185.707V197.707C405.85 198.502 405.534 199.265 404.972 199.827C404.409 200.39 403.647 200.706 402.851 200.707ZM353.851 184.707C353.586 184.707 353.332 184.813 353.145 185C352.957 185.188 352.852 185.442 352.851 185.707V197.707C352.852 197.972 352.957 198.226 353.145 198.414C353.332 198.601 353.586 198.707 353.851 198.707H402.851C403.116 198.707 403.371 198.601 403.558 198.414C403.746 198.226 403.851 197.972 403.851 197.707V185.707C403.851 185.442 403.746 185.188 403.558 185C403.371 184.813 403.116 184.707 402.851 184.707H353.851Z" fill="#3F3D56"/>
<path opacity="0.1" d="M433.761 314.337H40.591V50.947L433.761 314.337Z" fill="black"/>
<path d="M578.948 309.152H529.646V305.6C529.646 305.507 529.627 305.416 529.592 305.33C529.557 305.245 529.505 305.167 529.439 305.102C529.374 305.036 529.296 304.984 529.211 304.949C529.125 304.914 529.034 304.895 528.941 304.895H512.038C511.945 304.895 511.854 304.914 511.768 304.949C511.683 304.984 511.605 305.036 511.54 305.102C511.474 305.167 511.422 305.245 511.387 305.33C511.352 305.416 511.333 305.507 511.333 305.6V309.152H500.769V305.6C500.769 305.507 500.75 305.416 500.715 305.33C500.68 305.245 500.628 305.167 500.562 305.102C500.497 305.036 500.419 304.984 500.334 304.949C500.248 304.914 500.157 304.895 500.064 304.895H483.161C483.068 304.895 482.977 304.914 482.891 304.949C482.806 304.984 482.728 305.036 482.663 305.102C482.597 305.167 482.545 305.245 482.51 305.33C482.475 305.416 482.456 305.507 482.456 305.6V309.152H471.892V305.6C471.892 305.507 471.874 305.416 471.838 305.33C471.803 305.245 471.751 305.167 471.685 305.102C471.62 305.036 471.542 304.984 471.457 304.949C471.371 304.914 471.28 304.895 471.187 304.895H454.284C454.191 304.895 454.1 304.914 454.014 304.949C453.929 304.984 453.851 305.036 453.786 305.102C453.72 305.167 453.668 305.245 453.633 305.33C453.598 305.416 453.579 305.507 453.579 305.6V309.152H443.015V305.6C443.015 305.507 442.997 305.416 442.961 305.33C442.926 305.245 442.874 305.167 442.808 305.102C442.743 305.036 442.665 304.984 442.58 304.949C442.495 304.914 442.403 304.895 442.31 304.895H425.407C425.314 304.895 425.223 304.914 425.137 304.949C425.052 304.984 424.974 305.036 424.909 305.102C424.843 305.167 424.792 305.245 424.756 305.33C424.721 305.416 424.703 305.507 424.703 305.6V309.152H414.138V305.6C414.138 305.507 414.12 305.416 414.084 305.33C414.049 305.245 413.997 305.167 413.932 305.102C413.866 305.036 413.788 304.984 413.703 304.949C413.618 304.914 413.526 304.895 413.433 304.895H396.53C396.437 304.895 396.346 304.914 396.26 304.949C396.175 304.984 396.097 305.036 396.032 305.102C395.966 305.167 395.915 305.245 395.879 305.33C395.844 305.416 395.826 305.507 395.826 305.6V309.152H385.261V305.6C385.261 305.507 385.243 305.416 385.207 305.33C385.172 305.245 385.12 305.167 385.055 305.102C384.989 305.036 384.911 304.984 384.826 304.949C384.741 304.914 384.649 304.895 384.557 304.895H367.653C367.56 304.895 367.469 304.914 367.383 304.949C367.298 304.984 367.22 305.036 367.155 305.102C367.09 305.167 367.038 305.245 367.002 305.33C366.967 305.416 366.949 305.507 366.949 305.6V309.152H356.384V305.6C356.384 305.507 356.366 305.416 356.33 305.33C356.295 305.245 356.243 305.167 356.178 305.102C356.112 305.036 356.035 304.984 355.949 304.949C355.864 304.914 355.772 304.895 355.68 304.895H223.268C223.176 304.895 223.084 304.914 222.999 304.949C222.913 304.984 222.836 305.036 222.77 305.102C222.705 305.167 222.653 305.245 222.617 305.33C222.582 305.416 222.564 305.507 222.564 305.6V309.152H211.999V305.6C211.999 305.507 211.981 305.416 211.945 305.33C211.91 305.245 211.858 305.167 211.793 305.102C211.727 305.036 211.65 304.984 211.564 304.949C211.479 304.914 211.387 304.895 211.295 304.895H194.391C194.299 304.895 194.207 304.914 194.122 304.949C194.036 304.984 193.959 305.036 193.893 305.102C193.828 305.167 193.776 305.245 193.74 305.33C193.705 305.416 193.687 305.507 193.687 305.6V309.152H183.122V305.6C183.122 305.507 183.104 305.416 183.069 305.33C183.033 305.245 182.981 305.167 182.916 305.102C182.85 305.036 182.773 304.984 182.687 304.949C182.602 304.914 182.51 304.895 182.418 304.895H165.514C165.422 304.895 165.33 304.914 165.245 304.949C165.159 304.984 165.082 305.036 165.016 305.102C164.951 305.167 164.899 305.245 164.864 305.33C164.828 305.416 164.81 305.507 164.81 305.6V309.152H154.245V305.6C154.245 305.507 154.227 305.416 154.192 305.33C154.156 305.245 154.104 305.167 154.039 305.102C153.974 305.036 153.896 304.984 153.81 304.949C153.725 304.914 153.633 304.895 153.541 304.895H136.637C136.545 304.895 136.453 304.914 136.368 304.949C136.282 304.984 136.205 305.036 136.139 305.102C136.074 305.167 136.022 305.245 135.987 305.33C135.951 305.416 135.933 305.507 135.933 305.6V309.152H125.368V305.6C125.368 305.507 125.35 305.416 125.315 305.33C125.279 305.245 125.227 305.167 125.162 305.102C125.097 305.036 125.019 304.984 124.933 304.949C124.848 304.914 124.756 304.895 124.664 304.895H107.76C107.668 304.895 107.576 304.914 107.491 304.949C107.405 304.984 107.328 305.036 107.262 305.102C107.197 305.167 107.145 305.245 107.11 305.33C107.074 305.416 107.056 305.507 107.056 305.6V309.152H96.4913V305.6C96.4913 305.507 96.4731 305.416 96.4377 305.33C96.4023 305.245 96.3504 305.167 96.285 305.102C96.2196 305.036 96.142 304.984 96.0565 304.949C95.9711 304.914 95.8795 304.895 95.787 304.895H78.8834C78.7909 304.895 78.6993 304.914 78.6139 304.949C78.5284 304.984 78.4508 305.036 78.3854 305.102C78.32 305.167 78.2681 305.245 78.2327 305.33C78.1973 305.416 78.1791 305.507 78.1791 305.6V309.152H67.6143V305.6C67.6143 305.507 67.5961 305.416 67.5607 305.33C67.5253 305.245 67.4734 305.167 67.408 305.102C67.3426 305.036 67.265 304.984 67.1795 304.949C67.0941 304.914 67.0025 304.895 66.91 304.895H50.0064C49.9139 304.895 49.8224 304.914 49.7369 304.949C49.6514 304.984 49.5738 305.036 49.5084 305.102C49.443 305.167 49.3911 305.245 49.3557 305.33C49.3203 305.416 49.3021 305.507 49.3021 305.6V309.152H16.9036C14.6838 309.152 12.4857 309.589 10.4349 310.439C8.38402 311.288 6.52058 312.533 4.95094 314.103C3.3813 315.672 2.13619 317.536 1.28671 319.587C0.437221 321.638 -1.31322e-06 323.836 0 326.055V333.699C1.06086e-05 338.182 1.78092 342.481 4.95096 345.651C8.12099 348.821 12.4205 350.602 16.9036 350.602H578.948C581.167 350.602 583.366 350.165 585.416 349.316C587.467 348.466 589.331 347.221 590.9 345.651C592.47 344.082 593.715 342.218 594.565 340.168C595.414 338.117 595.851 335.919 595.851 333.699V326.055C595.851 323.836 595.414 321.638 594.565 319.587C593.715 317.536 592.47 315.672 590.9 314.103C589.331 312.533 587.467 311.288 585.416 310.439C583.366 309.589 581.167 309.152 578.948 309.152Z" fill="#3F3D56"/>
<path d="M424.851 217.707H160.851C160.056 217.706 159.293 217.39 158.731 216.827C158.169 216.265 157.852 215.502 157.851 214.707V104.707C157.852 103.911 158.169 103.149 158.731 102.586C159.293 102.024 160.056 101.708 160.851 101.707H424.851C425.647 101.708 426.409 102.024 426.972 102.586C427.534 103.149 427.85 103.911 427.851 104.707V214.707C427.85 215.502 427.534 216.265 426.972 216.827C426.409 217.39 425.647 217.706 424.851 217.707ZM160.851 103.707C160.586 103.707 160.332 103.813 160.145 104C159.957 104.188 159.852 104.442 159.851 104.707V214.707C159.852 214.972 159.957 215.226 160.145 215.414C160.332 215.601 160.586 215.706 160.851 215.707H424.851C425.116 215.706 425.371 215.601 425.558 215.414C425.746 215.226 425.851 214.972 425.851 214.707V104.707C425.851 104.442 425.746 104.188 425.558 104C425.371 103.813 425.116 103.707 424.851 103.707H160.851Z" fill="#3F3D56"/>
<path d="M190.851 165.707H178.851C178.056 165.706 177.293 165.39 176.731 164.827C176.169 164.265 175.852 163.502 175.851 162.707V150.707C175.852 149.911 176.169 149.149 176.731 148.586C177.293 148.024 178.056 147.708 178.851 147.707H190.851C191.647 147.708 192.409 148.024 192.972 148.586C193.534 149.149 193.85 149.911 193.851 150.707V162.707C193.85 163.502 193.534 164.265 192.972 164.827C192.409 165.39 191.647 165.706 190.851 165.707ZM178.851 149.707C178.586 149.707 178.332 149.813 178.145 150C177.957 150.188 177.852 150.442 177.851 150.707V162.707C177.852 162.972 177.957 163.226 178.145 163.414C178.332 163.601 178.586 163.706 178.851 163.707H190.851C191.116 163.706 191.371 163.601 191.558 163.414C191.746 163.226 191.851 162.972 191.851 162.707V150.707C191.851 150.442 191.746 150.188 191.558 150C191.371 149.813 191.116 149.707 190.851 149.707H178.851Z" fill="#3F3D56"/>
<path d="M404.851 163.707H176.851V165.707H404.851V163.707Z" fill="#3F3D56"/>
<path d="M264.851 283.707C272.583 283.707 278.851 277.439 278.851 269.707C278.851 261.975 272.583 255.707 264.851 255.707C257.119 255.707 250.851 261.975 250.851 269.707C250.851 277.439 257.119 283.707 264.851 283.707Z" fill="#3F3D56"/>
</svg>
