<svg width="596" height="348" viewBox="0 0 596 348" fill="none" xmlns="http://www.w3.org/2000/svg">
<path d="M544.761 13.3568H41.5913C33.8595 13.3568 27.5913 19.6246 27.5913 27.3568V310.337C27.5913 318.069 33.8592 324.337 41.5913 324.337H544.761C552.493 324.337 558.761 318.069 558.761 310.337V27.3568C558.761 19.6247 552.493 13.3568 544.761 13.3568Z" stroke="#3F3D56" stroke-width="26"/>
<path d="M292.744 18.5888C295.606 18.5888 297.926 16.269 297.926 13.4075C297.926 10.5459 295.606 8.22617 292.744 8.22617C289.883 8.22617 287.563 10.5459 287.563 13.4075C287.563 16.269 289.883 18.5888 292.744 18.5888Z" fill="#25FF25"/>
<path d="M190.851 132.707H178.851C178.056 132.706 177.293 132.39 176.731 131.827C176.169 131.265 175.852 130.502 175.851 129.707V117.707C175.852 116.911 176.169 116.149 176.731 115.586C177.293 115.024 178.056 114.708 178.851 114.707H190.851C191.647 114.708 192.409 115.024 192.972 115.586C193.534 116.149 193.85 116.911 193.851 117.707V129.707C193.85 130.502 193.534 131.265 192.972 131.827C192.409 132.39 191.647 132.706 190.851 132.707ZM178.851 116.707C178.586 116.707 178.332 116.813 178.145 117C177.957 117.188 177.852 117.442 177.851 117.707V129.707C177.852 129.972 177.957 130.226 178.145 130.414C178.332 130.601 178.586 130.706 178.851 130.707H190.851C191.116 130.706 191.371 130.601 191.558 130.414C191.746 130.226 191.851 129.972 191.851 129.707V117.707C191.851 117.442 191.746 117.188 191.558 117C191.371 116.813 191.116 116.707 190.851 116.707H178.851Z" fill="#3F3D56"/>
<path d="M404.851 130.707H176.851V132.707H404.851V130.707Z" fill="#3F3D56"/>
<path d="M398.851 185.707H345.851V201.707H398.851V185.707Z" fill="#25FF25"/>
<path d="M402.851 197.707H353.851C353.056 197.706 352.293 197.39 351.731 196.827C351.169 196.265 350.852 195.502 350.851 194.707V182.707C350.852 181.911 351.169 181.149 351.731 180.586C352.293 180.024 353.056 179.708 353.851 179.707H402.851C403.647 179.708 404.409 180.024 404.972 180.586C405.534 181.149 405.85 181.911 405.851 182.707V194.707C405.85 195.502 405.534 196.265 404.972 196.827C404.409 197.39 403.647 197.706 402.851 197.707ZM353.851 181.707C353.586 181.707 353.332 181.813 353.145 182C352.957 182.188 352.852 182.442 352.851 182.707V194.707C352.852 194.972 352.957 195.226 353.145 195.414C353.332 195.601 353.586 195.707 353.851 195.707H402.851C403.116 195.707 403.371 195.601 403.558 195.414C403.746 195.226 403.851 194.972 403.851 194.707V182.707C403.851 182.442 403.746 182.188 403.558 182C403.371 181.813 403.116 181.707 402.851 181.707H353.851Z" fill="#3F3D56"/>
<path opacity="0.1" d="M433.761 311.337H40.591V47.947L433.761 311.337Z" fill="black"/>
<path d="M578.948 306.152H529.646V302.6C529.646 302.507 529.627 302.416 529.592 302.33C529.557 302.245 529.505 302.167 529.439 302.102C529.374 302.036 529.296 301.984 529.211 301.949C529.125 301.914 529.034 301.895 528.941 301.895H512.038C511.945 301.895 511.854 301.914 511.768 301.949C511.683 301.984 511.605 302.036 511.54 302.102C511.474 302.167 511.422 302.245 511.387 302.33C511.352 302.416 511.333 302.507 511.333 302.6V306.152H500.769V302.6C500.769 302.507 500.75 302.416 500.715 302.33C500.68 302.245 500.628 302.167 500.562 302.102C500.497 302.036 500.419 301.984 500.334 301.949C500.248 301.914 500.157 301.895 500.064 301.895H483.161C483.068 301.895 482.977 301.914 482.891 301.949C482.806 301.984 482.728 302.036 482.663 302.102C482.597 302.167 482.545 302.245 482.51 302.33C482.475 302.416 482.456 302.507 482.456 302.6V306.152H471.892V302.6C471.892 302.507 471.874 302.416 471.838 302.33C471.803 302.245 471.751 302.167 471.685 302.102C471.62 302.036 471.542 301.984 471.457 301.949C471.371 301.914 471.28 301.895 471.187 301.895H454.284C454.191 301.895 454.1 301.914 454.014 301.949C453.929 301.984 453.851 302.036 453.786 302.102C453.72 302.167 453.668 302.245 453.633 302.33C453.598 302.416 453.579 302.507 453.579 302.6V306.152H443.015V302.6C443.015 302.507 442.997 302.416 442.961 302.33C442.926 302.245 442.874 302.167 442.808 302.102C442.743 302.036 442.665 301.984 442.58 301.949C442.495 301.914 442.403 301.895 442.31 301.895H425.407C425.314 301.895 425.223 301.914 425.137 301.949C425.052 301.984 424.974 302.036 424.909 302.102C424.843 302.167 424.792 302.245 424.756 302.33C424.721 302.416 424.703 302.507 424.703 302.6V306.152H414.138V302.6C414.138 302.507 414.12 302.416 414.084 302.33C414.049 302.245 413.997 302.167 413.932 302.102C413.866 302.036 413.788 301.984 413.703 301.949C413.618 301.914 413.526 301.895 413.433 301.895H396.53C396.437 301.895 396.346 301.914 396.26 301.949C396.175 301.984 396.097 302.036 396.032 302.102C395.966 302.167 395.915 302.245 395.879 302.33C395.844 302.416 395.826 302.507 395.826 302.6V306.152H385.261V302.6C385.261 302.507 385.243 302.416 385.207 302.33C385.172 302.245 385.12 302.167 385.055 302.102C384.989 302.036 384.911 301.984 384.826 301.949C384.741 301.914 384.649 301.895 384.557 301.895H367.653C367.56 301.895 367.469 301.914 367.383 301.949C367.298 301.984 367.22 302.036 367.155 302.102C367.09 302.167 367.038 302.245 367.002 302.33C366.967 302.416 366.949 302.507 366.949 302.6V306.152H356.384V302.6C356.384 302.507 356.366 302.416 356.33 302.33C356.295 302.245 356.243 302.167 356.178 302.102C356.112 302.036 356.035 301.984 355.949 301.949C355.864 301.914 355.772 301.895 355.68 301.895H223.268C223.176 301.895 223.084 301.914 222.999 301.949C222.913 301.984 222.836 302.036 222.77 302.102C222.705 302.167 222.653 302.245 222.617 302.33C222.582 302.416 222.564 302.507 222.564 302.6V306.152H211.999V302.6C211.999 302.507 211.981 302.416 211.945 302.33C211.91 302.245 211.858 302.167 211.793 302.102C211.727 302.036 211.65 301.984 211.564 301.949C211.479 301.914 211.387 301.895 211.295 301.895H194.391C194.299 301.895 194.207 301.914 194.122 301.949C194.036 301.984 193.959 302.036 193.893 302.102C193.828 302.167 193.776 302.245 193.74 302.33C193.705 302.416 193.687 302.507 193.687 302.6V306.152H183.122V302.6C183.122 302.507 183.104 302.416 183.069 302.33C183.033 302.245 182.981 302.167 182.916 302.102C182.85 302.036 182.773 301.984 182.687 301.949C182.602 301.914 182.51 301.895 182.418 301.895H165.514C165.422 301.895 165.33 301.914 165.245 301.949C165.159 301.984 165.082 302.036 165.016 302.102C164.951 302.167 164.899 302.245 164.864 302.33C164.828 302.416 164.81 302.507 164.81 302.6V306.152H154.245V302.6C154.245 302.507 154.227 302.416 154.192 302.33C154.156 302.245 154.104 302.167 154.039 302.102C153.974 302.036 153.896 301.984 153.81 301.949C153.725 301.914 153.633 301.895 153.541 301.895H136.637C136.545 301.895 136.453 301.914 136.368 301.949C136.282 301.984 136.205 302.036 136.139 302.102C136.074 302.167 136.022 302.245 135.987 302.33C135.951 302.416 135.933 302.507 135.933 302.6V306.152H125.368V302.6C125.368 302.507 125.35 302.416 125.315 302.33C125.279 302.245 125.227 302.167 125.162 302.102C125.097 302.036 125.019 301.984 124.933 301.949C124.848 301.914 124.756 301.895 124.664 301.895H107.76C107.668 301.895 107.576 301.914 107.491 301.949C107.405 301.984 107.328 302.036 107.262 302.102C107.197 302.167 107.145 302.245 107.11 302.33C107.074 302.416 107.056 302.507 107.056 302.6V306.152H96.4913V302.6C96.4913 302.507 96.4731 302.416 96.4377 302.33C96.4023 302.245 96.3504 302.167 96.285 302.102C96.2196 302.036 96.142 301.984 96.0565 301.949C95.9711 301.914 95.8795 301.895 95.787 301.895H78.8834C78.7909 301.895 78.6993 301.914 78.6139 301.949C78.5284 301.984 78.4508 302.036 78.3854 302.102C78.32 302.167 78.2681 302.245 78.2327 302.33C78.1973 302.416 78.1791 302.507 78.1791 302.6V306.152H67.6143V302.6C67.6143 302.507 67.5961 302.416 67.5607 302.33C67.5253 302.245 67.4734 302.167 67.408 302.102C67.3426 302.036 67.265 301.984 67.1795 301.949C67.0941 301.914 67.0025 301.895 66.91 301.895H50.0064C49.9139 301.895 49.8224 301.914 49.7369 301.949C49.6514 301.984 49.5738 302.036 49.5084 302.102C49.443 302.167 49.3911 302.245 49.3557 302.33C49.3203 302.416 49.3021 302.507 49.3021 302.6V306.152H16.9036C14.6838 306.152 12.4857 306.589 10.4349 307.439C8.38402 308.288 6.52058 309.533 4.95094 311.103C3.3813 312.672 2.13619 314.536 1.28671 316.587C0.437221 318.638 -1.31322e-06 320.836 0 323.055V330.699C1.06086e-05 335.182 1.78092 339.481 4.95096 342.651C8.12099 345.821 12.4205 347.602 16.9036 347.602H578.948C581.167 347.602 583.366 347.165 585.416 346.316C587.467 345.466 589.331 344.221 590.9 342.651C592.47 341.082 593.715 339.218 594.565 337.168C595.414 335.117 595.851 332.919 595.851 330.699V323.055C595.851 320.836 595.414 318.638 594.565 316.587C593.715 314.536 592.47 312.672 590.9 311.103C589.331 309.533 587.467 308.288 585.416 307.439C583.366 306.589 581.167 306.152 578.948 306.152Z" fill="#3F3D56"/>
<path d="M424.851 214.707H160.851C160.056 214.706 159.293 214.39 158.731 213.827C158.169 213.265 157.852 212.502 157.851 211.707V101.707C157.852 100.911 158.169 100.149 158.731 99.5865C159.293 99.024 160.056 98.7077 160.851 98.7068H424.851C425.647 98.7077 426.409 99.024 426.972 99.5865C427.534 100.149 427.85 100.911 427.851 101.707V211.707C427.85 212.502 427.534 213.265 426.972 213.827C426.409 214.39 425.647 214.706 424.851 214.707ZM160.851 100.707C160.586 100.707 160.332 100.813 160.145 101C159.957 101.188 159.852 101.442 159.851 101.707V211.707C159.852 211.972 159.957 212.226 160.145 212.414C160.332 212.601 160.586 212.706 160.851 212.707H424.851C425.116 212.706 425.371 212.601 425.558 212.414C425.746 212.226 425.851 211.972 425.851 211.707V101.707C425.851 101.442 425.746 101.188 425.558 101C425.371 100.813 425.116 100.707 424.851 100.707H160.851Z" fill="#3F3D56"/>
<path d="M190.851 162.707H178.851C178.056 162.706 177.293 162.39 176.731 161.827C176.169 161.265 175.852 160.502 175.851 159.707V147.707C175.852 146.911 176.169 146.149 176.731 145.586C177.293 145.024 178.056 144.708 178.851 144.707H190.851C191.647 144.708 192.409 145.024 192.972 145.586C193.534 146.149 193.85 146.911 193.851 147.707V159.707C193.85 160.502 193.534 161.265 192.972 161.827C192.409 162.39 191.647 162.706 190.851 162.707ZM178.851 146.707C178.586 146.707 178.332 146.813 178.145 147C177.957 147.188 177.852 147.442 177.851 147.707V159.707C177.852 159.972 177.957 160.226 178.145 160.414C178.332 160.601 178.586 160.706 178.851 160.707H190.851C191.116 160.706 191.371 160.601 191.558 160.414C191.746 160.226 191.851 159.972 191.851 159.707V147.707C191.851 147.442 191.746 147.188 191.558 147C191.371 146.813 191.116 146.707 190.851 146.707H178.851Z" fill="#3F3D56"/>
<path d="M404.851 160.707H176.851V162.707H404.851V160.707Z" fill="#3F3D56"/>
<path d="M264.851 280.707C272.583 280.707 278.851 274.439 278.851 266.707C278.851 258.975 272.583 252.707 264.851 252.707C257.119 252.707 250.851 258.975 250.851 266.707C250.851 274.439 257.119 280.707 264.851 280.707Z" fill="#3F3D56"/>
</svg>
