<svg width="820" height="584" viewBox="0 0 820 584" fill="none" xmlns="http://www.w3.org/2000/svg">
<path d="M411.087 583.992C402.037 583.962 393.027 582.797 384.267 580.523L382.541 580.046L380.939 579.243C323.035 550.216 274.185 511.874 235.745 465.283C203.925 426.489 179.116 382.442 162.435 335.124C142.487 278.472 132.89 218.696 134.102 158.648C134.127 157.387 134.147 156.414 134.147 155.743C134.147 126.554 150.352 100.942 175.431 90.4937C194.625 82.4973 368.897 10.9265 381.488 5.75536C405.202 -6.12495 430.5 3.79103 434.548 5.52507C443.629 9.23725 604.733 75.1218 639.547 91.6972C675.427 108.78 685 139.47 685 154.91C685 224.814 672.892 290.144 649.012 349.087C629.726 396.796 602.392 440.842 568.201 479.304C502.232 553.531 436.246 579.845 435.61 580.077C427.724 582.791 419.426 584.115 411.087 583.992ZM395.57 545.559C401.29 546.842 414.461 548.765 423.046 545.634C433.952 541.657 489.181 513.022 540.791 454.951C612.098 374.716 648.279 273.855 648.332 155.168C648.205 152.764 646.497 135.614 623.782 124.799C589.643 108.544 422.189 40.0821 420.502 39.3921L420.039 39.196C416.53 37.7257 405.362 34.6286 397.663 38.6623L396.122 39.3808C394.255 40.1473 209.263 116.117 189.534 124.336C175.733 130.086 170.815 144.33 170.815 155.744C170.815 156.578 170.794 157.791 170.763 159.359C169.186 240.569 187.981 440.401 395.57 545.559Z" fill="#3F3D56"/>
<path d="M389.221 22.0713C389.221 22.0713 203.04 98.6862 183.092 107.014C163.144 115.342 153.17 135.328 153.17 155.315C153.17 175.301 138.209 436.098 389.221 562.193C389.221 562.193 412.003 568.509 429.287 562.193C446.572 555.877 666 449.283 666 154.482C666 154.482 666 124.502 631.091 107.847C596.182 91.1913 427.403 22.0713 427.403 22.0713C427.403 22.0713 406.676 12.9108 389.221 22.0713Z" fill="#25FF25"/>
<path opacity="0.1" d="M409 82V491C409 491 220.341 400.342 222.011 162.002L409 82Z" fill="black"/>
<path d="M411.884 377L352 299.429L386.825 272.142L415.18 308.87L510.968 207L543 237.574L411.884 377Z" fill="white"/>
</svg>
