<svg width="469" height="506" viewBox="0 0 469 506" fill="none" xmlns="http://www.w3.org/2000/svg">
<path d="M461.216 285H202.784C200.72 284.998 198.742 284.175 197.283 282.712C195.823 281.249 195.002 279.266 195 277.197V189.803C195.002 187.734 195.823 185.751 197.283 184.288C198.742 182.825 200.72 182.002 202.784 182H461.216C463.28 182.002 465.258 182.825 466.717 184.288C468.177 185.751 468.998 187.734 469 189.803V277.197C468.998 279.266 468.177 281.249 466.717 282.712C465.258 284.175 463.28 284.998 461.216 285V285Z" fill="#252525"/>
<path d="M304 205H235V213H304V205Z" fill="white"/>
<path d="M394.5 215C396.985 215 399 212.761 399 210C399 207.239 396.985 205 394.5 205C392.015 205 390 207.239 390 210C390 212.761 392.015 215 394.5 215Z" fill="#25FF25"/>
<path d="M409.5 215C411.985 215 414 212.761 414 210C414 207.239 411.985 205 409.5 205C407.015 205 405 207.239 405 210C405 212.761 407.015 215 409.5 215Z" fill="#25FF25"/>
<path d="M425.5 215C427.985 215 430 212.761 430 210C430 207.239 427.985 205 425.5 205C423.015 205 421 207.239 421 210C421 212.761 423.015 215 425.5 215Z" fill="#25FF25"/>
<path d="M461.216 395H202.784C200.72 394.998 198.742 394.183 197.283 392.734C195.823 391.285 195.002 389.321 195 387.273V300.727C195.002 298.679 195.823 296.714 197.283 295.266C198.742 293.817 200.72 293.002 202.784 293H461.216C463.28 293.002 465.258 293.817 466.717 295.266C468.177 296.715 468.998 298.679 469 300.727V387.273C468.998 389.321 468.177 391.285 466.717 392.734C465.258 394.183 463.28 394.998 461.216 395V395Z" fill="#252525"/>
<path d="M304 316H235V324H304V316Z" fill="white"/>
<path d="M394.5 325C396.985 325 399 322.985 399 320.5C399 318.015 396.985 316 394.5 316C392.015 316 390 318.015 390 320.5C390 322.985 392.015 325 394.5 325Z" fill="#25FF25"/>
<path d="M409.5 325C411.985 325 414 322.985 414 320.5C414 318.015 411.985 316 409.5 316C407.015 316 405 318.015 405 320.5C405 322.985 407.015 325 409.5 325Z" fill="#25FF25"/>
<path d="M425.5 325C427.985 325 430 322.985 430 320.5C430 318.015 427.985 316 425.5 316C423.015 316 421 318.015 421 320.5C421 322.985 423.015 325 425.5 325Z" fill="#25FF25"/>
<path d="M461.216 506H202.784C200.72 505.998 198.742 505.175 197.283 503.712C195.823 502.249 195.002 500.266 195 498.197V410.803C195.002 408.734 195.823 406.751 197.283 405.288C198.742 403.825 200.72 403.002 202.784 403H461.216C463.28 403.002 465.258 403.825 466.717 405.288C468.177 406.751 468.998 408.734 469 410.803V498.197C468.998 500.266 468.177 502.249 466.717 503.712C465.258 505.175 463.28 505.998 461.216 506Z" fill="#252525"/>
<path d="M304 427H235V434H304V427Z" fill="white"/>
<path d="M394.5 436C396.985 436 399 433.985 399 431.5C399 429.015 396.985 427 394.5 427C392.015 427 390 429.015 390 431.5C390 433.985 392.015 436 394.5 436Z" fill="#25FF25"/>
<path d="M409.5 436C411.985 436 414 433.985 414 431.5C414 429.015 411.985 427 409.5 427C407.015 427 405 429.015 405 431.5C405 433.985 407.015 436 409.5 436Z" fill="#25FF25"/>
<path d="M425.5 436C427.985 436 430 433.985 430 431.5C430 429.015 427.985 427 425.5 427C423.015 427 421 429.015 421 431.5C421 433.985 423.015 436 425.5 436Z" fill="#25FF25"/>
<path d="M150.864 317.996C145.937 317.979 141.031 317.345 136.262 316.107L135.322 315.847L134.45 315.41C102.923 299.604 76.3259 278.726 55.3966 253.356C38.0716 232.232 24.5642 208.248 15.4818 182.482C4.62078 151.634 -0.604467 119.084 0.0555601 86.3869C0.0688561 85.7006 0.0801632 85.1706 0.0801632 84.8055C0.0801632 68.9111 8.9031 54.9649 22.5575 49.2757C33.008 44.9215 127.893 5.94972 134.749 3.1339C147.66 -3.33518 161.434 2.06434 163.638 3.00848C168.582 5.02985 256.297 40.9052 275.253 49.931C294.788 59.2331 300 75.9442 300 84.3518C300 122.416 293.408 157.989 280.406 190.085C269.905 216.064 255.023 240.047 236.407 260.991C200.49 301.409 164.563 315.738 164.216 315.864C159.922 317.341 155.405 318.063 150.864 317.996V317.996ZM142.415 297.068C145.53 297.767 152.701 298.814 157.375 297.109C163.313 294.944 193.383 279.351 221.483 247.73C260.307 204.041 280.007 149.12 280.036 84.4923C279.966 83.183 279.036 73.8445 266.669 67.9558C248.082 59.1047 156.909 21.8256 155.99 21.4498L155.738 21.343C153.828 20.5424 147.747 18.856 143.555 21.0524L142.716 21.4436C141.7 21.861 40.9782 63.2281 30.2362 67.7037C22.7219 70.8345 20.0446 78.5908 20.0446 84.8055C20.0446 85.2597 20.0328 85.9204 20.0162 86.7742C19.1577 130.995 29.3909 239.808 142.415 297.068Z" fill="#3F3D56"/>
<path d="M138.932 12.218C138.932 12.218 37.3122 53.957 26.4244 58.4939C15.5366 63.0307 10.0926 73.9192 10.0926 84.8076C10.0926 95.6961 1.92673 237.776 138.932 306.471C138.932 306.471 151.366 309.912 160.8 306.471C170.234 303.03 290 244.958 290 84.3539C290 84.3539 290 68.0213 270.946 58.9476C251.893 49.8739 159.771 12.218 159.771 12.218C159.771 12.218 148.459 7.22747 138.932 12.218Z" fill="#25FF25"/>
<path opacity="0.2" d="M150 55V278C150 278 251.896 228.57 250.994 98.6198L150 55Z" fill="black"/>
</svg>
